<?xml version="1.0" standalone="no"?>
<!DOCTYPE svg PUBLIC "-//W3C//DTD SVG 20010904//EN"
 "http://www.w3.org/TR/2001/REC-SVG-20010904/DTD/svg10.dtd">
<svg version="1.0" xmlns="http://www.w3.org/2000/svg"
 width="256.000000pt" height="256.000000pt" viewBox="0 0 256.000000 256.000000"
 preserveAspectRatio="xMidYMid meet">
<metadata>
Created by potrace 1.14, written by Peter Selinger 2001-2017
</metadata>
<g transform="translate(0.000000,256.000000) scale(0.100000,-0.100000)"
fill="#000000" stroke="none">
<path d="M131 2557 c2 -2 22 -15 44 -31 l40 -27 -35 30 c-19 17 -39 31 -44 31
-5 0 -7 -1 -5 -3z"/>
<path d="M253 2540 c28 -23 37 -25 37 -9 0 5 -4 8 -9 5 -5 -3 -14 1 -21 9 -7
8 -17 15 -23 15 -5 0 2 -9 16 -20z"/>
<path d="M366 2530 c-50 -16 -93 -27 -98 -24 -4 3 -8 -2 -8 -10 0 -16 39 -19
51 -4 3 5 20 -3 39 -17 19 -14 36 -25 39 -25 3 0 -6 10 -21 21 -16 11 -28 24
-28 28 0 13 92 33 104 21 5 -5 14 -10 20 -10 5 0 1 7 -10 16 -19 15 -18 15 4
11 12 -3 22 -1 22 5 0 5 10 6 21 3 15 -5 19 -4 15 4 -11 17 -54 12 -150 -19z"/>
<path d="M630 2550 c0 -5 -6 -8 -12 -6 -7 1 -10 1 -6 -1 4 -3 -12 -31 -36 -63
-42 -56 -141 -238 -134 -245 2 -2 27 43 56 99 29 57 76 131 103 164 27 34 45
62 39 62 -5 0 -10 -4 -10 -10z"/>
<path d="M824 2552 c3 -5 -12 -12 -34 -15 -21 -3 -47 -11 -58 -18 -17 -12 -11
-14 47 -13 61 1 66 3 64 23 -3 27 3 27 44 -4 24 -19 35 -37 39 -66 8 -47 20
-57 42 -34 10 10 11 15 5 11 -9 -5 -13 2 -13 22 0 16 -10 44 -23 63 -20 30
-29 34 -71 37 -28 2 -45 -1 -42 -6z"/>
<path d="M940 2552 c0 -4 5 -13 12 -20 7 -7 9 -12 5 -12 -4 0 1 -17 12 -38 16
-30 19 -51 14 -93 -4 -44 -2 -57 12 -69 15 -12 20 -12 43 0 14 8 27 22 30 30
3 9 -2 8 -13 -5 -16 -19 -16 -19 -11 -1 9 27 -18 113 -53 169 -27 42 -51 61
-51 39z"/>
<path d="M1004 2538 c51 -71 66 -101 67 -135 1 -32 2 -34 8 -13 3 14 13 25 21
25 11 0 15 11 14 43 -1 40 9 57 19 30 2 -7 6 2 9 20 2 17 1 32 -4 32 -4 0 -8
-7 -8 -15 0 -20 -29 -19 -54 3 -12 10 -9 4 7 -16 48 -59 29 -65 -24 -8 -50 55
-87 77 -55 34z"/>
<path d="M1195 2552 c3 -3 -4 -11 -15 -19 -27 -19 -25 -37 5 -57 32 -21 65
-86 65 -128 0 -19 -9 -51 -20 -73 -11 -22 -20 -41 -20 -42 0 -2 41 -3 90 -3
l90 0 -20 40 c-30 58 -23 155 11 155 8 0 17 -11 21 -25 6 -22 6 -22 5 6 -1 17
5 40 13 50 8 11 3 9 -13 -5 -15 -14 -27 -19 -27 -13 0 6 14 21 30 34 35 26 37
33 11 55 -11 9 -17 21 -14 27 4 6 -1 5 -10 -3 -12 -10 -17 -10 -17 -2 0 9 -27
12 -95 10 -52 -2 -92 -5 -90 -7z"/>
<path d="M1527 2501 c-32 -33 -57 -65 -57 -73 0 -10 -3 -9 -10 2 -5 8 -10 11
-10 5 0 -20 18 -38 33 -32 12 5 17 -3 20 -31 3 -30 4 -28 5 14 2 44 8 61 42
105 36 48 47 69 37 69 -2 0 -29 -27 -60 -59z"/>
<path d="M1607 2528 c-44 -58 -70 -121 -71 -170 -1 -39 -3 -44 -16 -35 -13 10
-13 10 -1 -5 16 -21 54 -24 69 -5 5 6 9 41 9 77 -1 40 4 75 13 90 8 14 15 27
15 30 0 3 6 15 13 28 19 34 -4 27 -31 -10z"/>
<path d="M1668 2537 c-33 -28 -48 -58 -48 -97 0 -22 -4 -29 -12 -24 -10 5 -10
4 -1 -6 18 -20 43 -4 43 27 0 36 23 69 60 88 27 14 28 14 23 -8 -3 -12 -13
-31 -22 -41 -16 -19 -15 -19 9 -3 16 11 46 17 85 18 l60 1 -40 18 c-22 11 -48
17 -59 14 -12 -4 -17 -2 -14 7 2 7 15 16 29 20 16 5 7 7 -31 8 -43 1 -61 -4
-82 -22z"/>
<path d="M1941 2523 c55 -58 84 -101 138 -203 28 -52 51 -91 51 -87 0 20 -88
176 -131 234 -26 34 -45 63 -43 66 2 2 -8 9 -23 16 -27 12 -26 11 8 -26z"/>
<path d="M2108 2547 c32 -7 41 -14 37 -25 -5 -13 -3 -13 11 -1 14 11 18 11 29
-4 9 -13 20 -16 39 -11 14 3 26 2 26 -3 0 -11 -37 -46 -65 -61 -11 -6 -15 -12
-8 -12 6 0 24 10 40 23 65 53 67 54 60 34 -5 -14 -3 -16 11 -8 9 4 26 5 37 1
19 -7 19 -8 -5 -18 -14 -6 -37 -13 -52 -16 -35 -8 -36 -22 -3 -28 13 -3 23 -2
21 1 -2 3 11 13 29 22 30 14 33 14 27 0 -7 -21 2 -12 17 17 7 12 8 21 4 20 -4
-1 -17 3 -29 9 -31 18 -224 73 -248 72 -11 -1 -2 -6 22 -12z"/>
<path d="M2351 2551 c-10 -6 0 -8 29 -4 36 5 42 4 37 -9 -4 -13 -2 -14 18 -4
13 6 21 14 19 18 -7 11 -86 10 -103 -1z"/>
<path d="M2498 2553 c12 -2 32 -2 45 0 12 2 2 4 -23 4 -25 0 -35 -2 -22 -4z"/>
<path d="M1460 2540 c-9 -6 -10 -10 -3 -10 6 0 15 5 18 10 8 12 4 12 -15 0z"/>
<path d="M553 2533 c9 -2 23 -2 30 0 6 3 -1 5 -18 5 -16 0 -22 -2 -12 -5z"/>
<path d="M2070 2536 c0 -2 9 -6 20 -9 11 -3 18 -1 14 4 -5 9 -34 13 -34 5z"/>
<path d="M2294 2528 c-3 -4 2 -8 10 -8 8 0 17 4 20 8 3 5 -2 9 -10 9 -8 0 -17
-4 -20 -9z"/>
<path d="M1494 2509 c-17 -19 -19 -19 -25 -2 -7 16 -8 15 -8 -4 -1 -30 10 -29
39 2 13 14 21 25 18 25 -3 0 -13 -9 -24 -21z"/>
<path d="M1993 2523 c15 -2 37 -2 50 0 12 2 0 4 -28 4 -27 0 -38 -2 -22 -4z"/>
<path d="M88 2489 c3 -21 7 -27 13 -18 4 7 3 21 -2 31 -14 25 -16 23 -11 -13z"/>
<path d="M2379 2503 c-13 -16 -12 -17 4 -4 9 7 17 15 17 17 0 8 -8 3 -21 -13z"/>
<path d="M0 2497 c0 -11 31 -32 84 -56 5 -2 -9 13 -31 33 -44 39 -53 43 -53
23z"/>
<path d="M2085 2500 c-3 -5 1 -10 10 -10 9 0 13 5 10 10 -3 6 -8 10 -10 10 -2
0 -7 -4 -10 -10z"/>
<path d="M2476 2484 c-10 -14 -16 -29 -14 -34 2 -4 11 7 20 26 21 40 17 45 -6
8z"/>
<path d="M220 2490 c-11 -7 -11 -10 -2 -10 8 0 10 -5 6 -12 -4 -7 -4 -10 1 -6
10 10 67 -20 60 -32 -3 -5 8 -4 25 1 31 11 32 29 1 29 -10 0 -33 5 -50 11 -24
9 -29 14 -19 20 7 5 9 9 3 9 -5 0 -17 -5 -25 -10z"/>
<path d="M2520 2455 c-18 -19 -30 -35 -26 -35 4 0 14 7 22 15 8 8 22 19 31 23
8 5 14 15 12 21 -3 7 -19 -3 -39 -24z"/>
<path d="M894 2453 c20 -40 9 -47 -44 -28 -56 20 -93 19 -119 -2 -22 -18 -21
-18 28 -15 33 3 63 -3 94 -16 39 -17 48 -18 58 -6 13 16 6 51 -16 79 -15 18
-15 17 -1 -12z"/>
<path d="M1156 2467 c3 -9 10 -15 16 -14 19 4 52 -53 59 -101 l6 -47 2 41 c1
45 -27 96 -67 122 -20 13 -22 13 -16 -1z"/>
<path d="M112 2440 c0 -19 2 -27 5 -17 2 9 2 25 0 35 -3 9 -5 1 -5 -18z"/>
<path d="M175 2432 c5 -22 2 -41 -10 -60 l-16 -27 20 24 c23 25 27 57 10 81
-8 11 -9 7 -4 -18z"/>
<path d="M464 2431 c-18 -22 -31 -26 -91 -29 -42 -2 -80 1 -94 8 l-24 11 24
-21 c13 -11 42 -23 64 -27 33 -5 37 -8 22 -14 -13 -5 -15 -8 -5 -8 28 -1 98
37 115 63 23 35 15 48 -11 17z"/>
<path d="M650 2440 c-8 -4 -33 -15 -55 -26 -37 -18 -85 -73 -85 -98 0 -6 17 7
38 30 26 28 50 43 76 48 35 7 52 24 44 44 -1 5 -10 6 -18 2z"/>
<path d="M2395 2437 c-6 -14 -1 -25 16 -40 12 -12 18 -15 12 -7 -6 8 -13 26
-15 40 -4 22 -5 23 -13 7z"/>
<path d="M1667 2433 c-10 -9 -9 -61 1 -67 5 -3 33 4 63 15 36 14 67 19 94 16
l40 -6 -24 20 c-27 22 -52 23 -106 4 -55 -20 -68 -19 -62 5 5 21 4 24 -6 13z"/>
<path d="M1905 2428 c-10 -25 1 -36 48 -48 26 -7 52 -23 69 -43 32 -38 47 -30
22 11 -18 31 -79 72 -107 72 -8 0 -17 6 -20 13 -3 8 -7 7 -12 -5z"/>
<path d="M2090 2425 c0 -17 24 -46 48 -59 43 -21 76 -30 68 -17 -5 7 2 11 19
11 33 0 85 26 85 43 0 9 -3 8 -9 -1 -5 -9 -33 -14 -79 -15 -59 -2 -75 2 -101
21 -17 12 -31 20 -31 17z"/>
<path d="M146 2405 c-11 -8 -15 -15 -9 -15 6 0 16 7 23 15 16 19 11 19 -14 0z"/>
<path d="M23 2404 c4 -7 0 -14 -8 -18 -18 -7 -20 -56 -2 -56 9 0 9 -2 -1 -9
-8 -4 -12 -19 -10 -32 l4 -24 14 28 c10 20 10 31 2 39 -8 8 -6 17 5 35 13 20
14 26 3 36 -9 8 -11 8 -7 1z"/>
<path d="M228 2379 c-18 -42 -62 -79 -93 -79 -24 0 -50 25 -58 55 -3 12 -5 6
-6 -15 0 -20 4 -41 11 -48 9 -9 5 -16 -14 -31 -34 -27 -39 -51 -17 -92 l18
-34 1 37 c0 49 17 91 32 82 7 -4 8 -3 4 4 -5 8 3 12 24 12 64 0 127 66 118
123 -4 19 -6 17 -20 -14z"/>
<path d="M2330 2372 c0 -37 6 -50 34 -78 61 -61 146 -40 146 35 0 26 0 26 -16
-6 -35 -70 -116 -41 -150 54 l-13 38 -1 -43z"/>
<path d="M1156 2385 c-9 -26 -7 -32 5 -12 6 10 9 21 6 23 -2 3 -7 -2 -11 -11z"/>
<path d="M2547 2393 c-10 -10 -8 -41 3 -48 5 -3 8 7 7 25 -1 16 -2 30 -3 30 0
0 -4 -3 -7 -7z"/>
<path d="M440 2339 c-24 -28 -57 -60 -74 -70 -17 -10 -26 -19 -19 -19 16 0 75
52 114 101 45 57 30 48 -21 -12z"/>
<path d="M2448 2373 c6 -2 18 -2 25 0 6 3 1 5 -13 5 -14 0 -19 -2 -12 -5z"/>
<path d="M1446 2333 c23 -21 44 -45 47 -53 5 -13 6 -12 6 1 1 9 -20 33 -46 54
l-48 37 41 -39z"/>
<path d="M2130 2322 c45 -56 86 -89 97 -78 3 3 0 6 -7 6 -8 0 -41 28 -74 63
-58 60 -58 61 -16 9z"/>
<path d="M737 2346 c53 -17 103 -53 103 -74 0 -11 -3 -13 -8 -6 -4 6 -27 21
-52 33 -44 22 -45 22 -20 1 14 -11 36 -28 49 -37 22 -16 24 -16 37 1 7 10 17
15 23 12 24 -15 70 -14 83 2 10 12 10 14 1 8 -8 -4 -13 -1 -13 8 0 19 -17 21
-22 4 -3 -8 -15 -4 -37 11 -38 28 -112 51 -155 50 -30 0 -29 -1 11 -13z"/>
<path d="M1105 2334 l-30 -26 33 22 c17 12 32 23 32 26 0 7 -4 5 -35 -22z"/>
<path d="M288 2343 c6 -2 18 -2 25 0 6 3 1 5 -13 5 -14 0 -19 -2 -12 -5z"/>
<path d="M1656 2328 c-9 -12 -16 -34 -16 -47 0 -19 -3 -22 -12 -13 -7 7 -16
12 -21 12 -5 0 1 -8 14 -18 19 -16 29 -17 63 -9 23 5 50 18 61 28 11 10 45 29
75 43 l55 25 -45 -5 c-25 -3 -73 -19 -108 -36 -34 -17 -65 -28 -69 -24 -4 4 0
21 9 37 20 34 16 39 -6 7z"/>
<path d="M2238 2333 c6 -2 18 -2 25 0 6 3 1 5 -13 5 -14 0 -19 -2 -12 -5z"/>
<path d="M2438 2333 c6 -2 18 -2 25 0 6 3 1 5 -13 5 -14 0 -19 -2 -12 -5z"/>
<path d="M690 2326 c0 -2 7 -6 15 -10 8 -3 15 -1 15 4 0 6 -7 10 -15 10 -8 0
-15 -2 -15 -4z"/>
<path d="M1361 2314 c0 -11 3 -14 6 -6 3 7 2 16 -1 19 -3 4 -6 -2 -5 -13z"/>
<path d="M2288 2307 c-3 -19 -2 -25 4 -19 6 6 8 18 6 28 -3 14 -5 12 -10 -9z"/>
<path d="M265 2311 c-18 -7 -17 -8 7 -13 19 -4 25 -1 21 9 -3 7 -6 13 -7 12 0
0 -10 -4 -21 -8z"/>
<path d="M1140 2305 c-7 -8 -24 -15 -39 -15 -14 0 -21 -4 -16 -8 6 -4 15 -16
21 -26 6 -11 17 -21 25 -23 8 -3 6 1 -4 7 -17 11 -17 13 7 35 14 13 26 29 26
35 0 14 -5 13 -20 -5z"/>
<path d="M1860 2313 c-39 -13 -104 -46 -117 -59 -30 -29 17 -15 58 18 30 24
42 29 48 19 7 -10 9 -9 14 3 4 9 22 16 49 19 l43 4 -40 0 c-22 1 -47 -1 -55
-4z"/>
<path d="M2544 2309 c-3 -6 -1 -16 4 -21 8 -8 11 -5 9 11 -1 24 -3 25 -13 10z"/>
<path d="M216 2287 c-17 -13 -17 -15 9 -35 26 -21 27 -23 11 -40 -15 -18 -15
-20 2 -35 33 -30 87 -22 132 19 22 20 40 34 40 30 0 -14 -74 -86 -89 -87 -11
0 -12 -2 -3 -6 18 -7 78 52 103 99 l19 37 -48 -30 c-57 -35 -134 -60 -151 -49
-16 9 24 40 54 41 13 0 15 2 5 5 -8 3 -32 12 -52 21 -34 14 -36 17 -20 29 22
17 11 18 -12 1z"/>
<path d="M560 2278 c-66 -26 -43 -38 27 -14 53 18 87 20 112 7 13 -7 17 -5 18
8 2 27 -87 26 -157 -1z"/>
<path d="M978 2293 c7 -3 16 -2 19 1 4 3 -2 6 -13 5 -11 0 -14 -3 -6 -6z"/>
<path d="M1030 2289 c25 -10 25 -11 -14 -24 -66 -23 -67 -35 -3 -35 49 0 57 3
57 18 0 22 -30 52 -51 51 -8 0 -3 -5 11 -10z"/>
<path d="M1170 2266 c-19 -25 -20 -27 -3 -13 14 12 23 15 28 8 3 -6 1 -11 -4
-11 -6 0 -11 -6 -11 -12 0 -7 12 0 25 15 14 15 25 33 25 40 -1 7 -7 1 -14 -13
-13 -23 -14 -23 -18 -4 -3 19 -5 18 -28 -10z"/>
<path d="M1420 2292 c0 -13 15 -29 38 -41 35 -19 28 10 -8 31 -17 9 -30 14
-30 10z"/>
<path d="M1379 2272 c5 -10 18 -25 28 -33 12 -10 11 -5 -6 19 -24 35 -38 43
-22 14z"/>
<path d="M1558 2283 c6 -2 18 -2 25 0 6 3 1 5 -13 5 -14 0 -19 -2 -12 -5z"/>
<path d="M1871 2273 c-8 -16 -4 -18 40 -15 30 3 66 -3 94 -13 25 -10 49 -15
52 -11 10 10 -14 24 -71 41 -66 20 -103 19 -115 -2z"/>
<path d="M2344 2276 c11 -9 18 -17 15 -20 -14 -12 -51 -26 -71 -26 -20 -1 -19
-3 11 -18 42 -21 52 -42 19 -42 -32 0 -140 53 -168 81 -21 23 -21 22 3 -27 36
-71 87 -114 135 -113 l37 2 -42 6 c-43 7 -86 38 -105 76 -8 16 -5 14 18 -6 58
-53 97 -61 135 -30 23 18 23 20 6 39 -17 19 -17 20 8 36 31 20 32 32 3 46 -22
11 -22 10 -4 -4z"/>
<path d="M1522 2268 c-25 -25 -13 -38 36 -38 34 0 43 3 32 10 -8 5 -28 10 -44
10 -24 0 -27 2 -16 15 15 18 9 20 -8 3z"/>
<path d="M2474 2248 c-4 -6 -3 -8 4 -4 14 8 35 -58 30 -95 -6 -38 -1 -37 16 6
8 19 20 35 25 35 6 0 3 9 -6 19 -10 11 -24 27 -31 35 -15 19 -28 20 -38 4z"/>
<path d="M600 2240 c8 -5 29 -10 45 -10 23 0 27 3 15 10 -8 5 -28 10 -45 10
-23 0 -27 -3 -15 -10z"/>
<path d="M111 2219 c-1 -41 18 -86 44 -103 36 -24 42 -19 14 10 -13 14 -32 46
-41 72 -13 37 -17 42 -17 21z"/>
<path d="M1948 2233 c6 -2 18 -2 25 0 6 3 1 5 -13 5 -14 0 -19 -2 -12 -5z"/>
<path d="M10 2206 c-18 -23 -8 -87 17 -103 21 -14 21 -14 6 29 -8 23 -13 53
-10 65 5 27 4 28 -13 9z"/>
<path d="M150 2206 c0 -9 92 -76 104 -76 6 0 2 6 -9 12 -11 6 -37 24 -57 40
-21 17 -38 27 -38 24z"/>
<path d="M420 2202 c0 -18 -102 -123 -134 -137 l-31 -14 30 6 c17 3 32 10 33
15 2 4 8 6 13 2 5 -3 12 2 15 10 3 9 9 14 13 11 5 -2 23 12 42 33 23 25 25 29
7 13 -35 -31 -36 -20 -2 25 15 19 24 37 20 41 -3 3 -6 1 -6 -5z"/>
<path d="M2156 2175 c9 -16 26 -40 37 -52 11 -13 17 -23 12 -23 -4 0 0 -9 10
-20 10 -11 21 -17 25 -15 5 3 10 1 12 -3 1 -5 17 -12 33 -15 29 -7 29 -7 -6
12 -34 19 -82 67 -122 121 -18 25 -18 25 -1 -5z m75 -92 c13 -16 12 -17 -3 -4
-17 13 -22 21 -14 21 2 0 10 -8 17 -17z"/>
<path d="M2404 2178 c-19 -23 -19 -23 2 -5 27 22 34 22 34 -3 0 -10 -15 -36
-32 -56 l-33 -37 31 16 c31 16 54 53 54 87 0 27 -32 26 -56 -2z"/>
<path d="M2544 2126 c-8 -35 -7 -43 3 -39 11 4 20 83 10 83 -1 0 -7 -20 -13
-44z"/>
<path d="M2359 2143 c-13 -16 -12 -17 4 -4 16 13 21 21 13 21 -2 0 -10 -8 -17
-17z"/>
<path d="M2165 2120 c10 -11 20 -20 23 -20 3 0 -3 9 -13 20 -10 11 -20 20 -23
20 -3 0 3 -9 13 -20z"/>
<path d="M111 2107 c17 -18 38 -29 65 -32 l39 -5 -40 10 c-21 6 -51 20 -65 33
l-25 21 26 -27z"/>
<path d="M278 2123 c7 -3 16 -2 19 1 4 3 -2 6 -13 5 -11 0 -14 -3 -6 -6z"/>
<path d="M2472 2109 c-7 -11 -27 -27 -45 -34 -18 -8 -25 -14 -15 -15 19 0 86
55 78 64 -3 3 -11 -4 -18 -15z"/>
<path d="M400 2089 c-22 -18 -22 -19 -3 -10 12 6 25 16 28 21 9 15 3 12 -25
-11z"/>
<path d="M2189 2061 c13 -12 28 -21 34 -21 12 0 11 0 -28 24 l-30 17 24 -20z"/>
<path d="M415 2039 c-9 -28 -111 -130 -121 -121 -4 4 -4 1 0 -5 10 -18 -55
-57 -66 -40 -5 8 -8 7 -8 -5 0 -20 9 -22 42 -8 33 14 59 36 62 53 1 8 16 27
33 41 34 29 79 94 70 102 -3 3 -8 -4 -12 -17z"/>
<path d="M2368 2053 c7 -3 16 -2 19 1 4 3 -2 6 -13 5 -11 0 -14 -3 -6 -6z"/>
<path d="M50 2040 c0 -5 4 -10 9 -10 6 0 13 5 16 10 3 6 -1 10 -9 10 -9 0 -16
-4 -16 -10z"/>
<path d="M138 2033 c6 -2 18 -2 25 0 6 3 1 5 -13 5 -14 0 -19 -2 -12 -5z"/>
<path d="M265 2030 c-3 -6 1 -7 9 -4 18 7 21 14 7 14 -6 0 -13 -4 -16 -10z"/>
<path d="M2515 2030 c3 -5 14 -10 23 -10 15 0 15 2 2 10 -20 13 -33 13 -25 0z"/>
<path d="M316 2004 c-16 -14 -37 -24 -46 -21 -13 3 -21 -5 -30 -34 -7 -22 -10
-42 -7 -46 4 -3 7 3 7 15 0 28 26 52 56 52 24 0 64 31 64 50 0 16 -13 11 -44
-16z"/>
<path d="M2166 2002 c10 -18 28 -41 38 -50 12 -10 8 0 -9 23 -40 56 -51 66
-29 27z"/>
<path d="M2293 2019 c20 -12 23 -49 3 -49 -8 0 -28 12 -45 26 -23 19 -31 22
-31 11 0 -21 48 -57 76 -57 13 0 28 -8 34 -17 11 -17 11 -17 6 0 -3 11 -9 31
-12 45 -8 32 -22 52 -38 52 -6 0 -3 -5 7 -11z"/>
<path d="M2373 2023 c9 -2 25 -2 35 0 9 3 1 5 -18 5 -19 0 -27 -2 -17 -5z"/>
<path d="M2431 2026 c2 -2 22 -6 44 -9 27 -4 35 -3 25 3 -14 9 -79 15 -69 6z"/>
<path d="M1618 2013 l-308 -3 0 -531 0 -530 30 21 c23 16 30 29 30 55 0 28 6
37 43 58 l42 25 5 -29 5 -28 42 27 c36 22 43 32 43 59 0 26 7 37 37 58 47 31
53 31 53 0 0 -30 0 -30 44 -4 30 17 36 27 36 55 0 28 6 38 40 59 49 31 50 31
50 0 0 -31 6 -31 53 0 30 21 37 32 37 58 0 21 7 36 20 45 11 7 20 17 20 24 0
6 -8 4 -19 -6 -27 -24 -130 -44 -140 -27 -6 9 -11 10 -15 2 -9 -14 -58 -14
-90 0 -27 13 -39 58 -41 146 0 39 -2 42 -32 48 -18 3 -33 11 -33 18 0 8 -4 7
-9 -2 -23 -36 -53 40 -31 77 5 10 10 12 10 5 0 -7 7 -13 16 -13 13 0 14 3 5
13 -6 8 -8 16 -5 20 10 10 64 -15 83 -39 16 -21 20 -22 31 -9 18 21 43 19 94
-10 60 -33 124 -34 154 -2 21 22 22 32 22 195 0 95 -3 171 -7 170 -5 -2 -146
-4 -315 -5z m-52 -53 c8 0 26 -11 40 -25 21 -21 23 -29 14 -40 -10 -12 -10
-15 0 -15 7 0 10 -7 6 -16 -4 -11 -2 -15 8 -11 10 4 13 1 9 -8 -3 -8 -9 -12
-14 -9 -5 3 -17 -10 -28 -28 -11 -18 -24 -38 -29 -43 -5 -6 -7 -16 -4 -23 2
-6 -4 -12 -13 -12 -11 0 -15 5 -11 15 3 8 1 15 -4 15 -17 0 -11 26 10 45 11
10 20 31 20 47 0 17 4 27 10 23 18 -11 10 10 -9 24 -11 8 -17 20 -14 27 2 6
-1 15 -8 20 -8 4 -10 3 -5 -4 4 -7 1 -12 -9 -12 -8 0 -18 -7 -21 -15 -4 -8
-10 -12 -15 -9 -10 6 -12 -17 -3 -40 5 -12 9 -13 25 -3 22 14 43 -1 34 -26 -9
-22 -35 -29 -54 -15 -14 12 -14 11 -3 -4 8 -10 12 -22 10 -28 -2 -6 -18 8 -36
32 -34 44 -36 76 -9 120 11 17 50 28 75 21 8 -1 20 -3 28 -3z m274 -140 c0 -5
-13 -10 -30 -10 -16 0 -30 5 -30 10 0 6 14 10 30 10 17 0 30 -4 30 -10z m-390
-425 c0 -10 -11 -15 -35 -15 -24 0 -35 5 -35 15 0 10 11 15 35 15 24 0 35 -5
35 -15z"/>
<path d="M1590 1849 c0 -5 5 -7 10 -4 6 3 10 8 10 11 0 2 -4 4 -10 4 -5 0 -10
-5 -10 -11z"/>
<path d="M1571 1807 c-13 -21 -12 -21 5 -5 10 10 16 20 13 22 -3 3 -11 -5 -18
-17z"/>
<path d="M145 1980 c47 -55 48 -56 37 -35 -6 11 -23 31 -39 45 l-28 25 30 -35z"/>
<path d="M632 1368 l3 -643 27 -58 c15 -31 44 -73 65 -93 54 -50 168 -106 308
-149 66 -21 144 -48 173 -61 l52 -23 0 835 0 834 -315 0 -316 0 3 -642z m212
523 c9 -10 18 -32 19 -50 1 -17 6 -31 12 -31 5 0 0 -6 -11 -14 -11 -8 -26 -33
-34 -55 -15 -45 -34 -53 -44 -18 -4 14 2 32 15 50 13 18 18 35 13 49 -4 14 -2
18 5 14 19 -12 12 9 -10 28 -19 15 -25 16 -46 5 -14 -7 -21 -19 -18 -27 3 -7
5 -18 5 -24 0 -6 6 -6 15 2 8 6 19 9 25 5 17 -10 11 -35 -9 -43 -11 -4 -20
-10 -20 -14 -1 -5 -4 -7 -8 -5 -5 1 -7 8 -7 14 1 7 -2 10 -7 8 -15 -10 -39 41
-37 77 2 20 6 34 11 31 4 -2 7 1 7 6 0 7 22 11 53 11 40 0 58 -5 71 -19z m161
-116 c18 -13 35 -22 37 -20 3 3 5 -2 5 -10 0 -22 -11 -19 -53 20 -44 40 -36
47 11 10z m-71 -49 c-3 -9 -12 -12 -22 -9 -15 6 -9 11 25 22 1 1 0 -5 -3 -13z
m56 -170 c0 -2 -7 -7 -16 -10 -8 -3 -12 -2 -9 4 6 10 25 14 25 6z m135 -46 c3
-6 -1 -7 -9 -4 -18 7 -21 14 -7 14 6 0 13 -4 16 -10z m-105 -80 c0 -5 -2 -10
-4 -10 -3 0 -8 5 -11 10 -3 6 -1 10 4 10 6 0 11 -4 11 -10z m59 -246 c17 -14
31 -31 31 -37 0 -6 -13 2 -30 18 -16 16 -32 27 -34 24 -8 -8 14 -49 26 -49 7
0 31 -16 53 -34 34 -29 38 -36 26 -48 -8 -7 -11 -8 -8 -2 4 7 -10 23 -31 38
-33 23 -47 26 -108 24 l-69 -2 68 -3 c55 -3 67 -7 67 -21 1 -10 20 -26 48 -40
61 -30 85 -48 81 -61 -2 -6 -25 3 -51 19 -27 17 -49 30 -50 30 -2 0 -3 -97 -3
-215 0 -167 -3 -215 -12 -215 -7 0 -13 -4 -13 -10 0 -5 -7 -10 -16 -10 -8 0
-12 -4 -9 -10 4 -6 -5 -10 -22 -9 -17 1 -21 3 -11 6 10 2 21 15 24 29 6 21 15
28 35 26 4 -1 5 8 2 19 -3 12 -11 18 -19 15 -8 -3 -14 1 -14 9 0 8 8 15 18 15
10 0 19 7 19 15 0 8 -9 15 -19 15 -10 0 -18 5 -18 10 0 6 7 10 15 10 10 0 15
10 15 26 0 23 -2 25 -16 14 -12 -11 -18 -10 -32 4 -12 12 -13 16 -3 14 19 -4
25 18 7 25 -9 4 -17 -1 -21 -14 -8 -25 -25 -25 -25 1 0 22 -7 25 -29 11 -12
-8 -12 -12 -2 -25 13 -16 11 -18 -19 -20 -20 -1 -26 -36 -6 -36 9 0 16 -4 16
-10 0 -5 -7 -10 -15 -10 -8 0 -15 -7 -15 -15 0 -8 7 -15 15 -15 8 0 15 -7 15
-15 0 -8 -7 -15 -15 -15 -8 0 -15 -7 -15 -15 0 -8 7 -15 15 -15 8 0 15 -4 15
-10 0 -5 -11 -10 -25 -10 l-25 0 0 215 c0 118 -2 215 -5 215 -2 0 -26 -13 -51
-30 -26 -16 -50 -27 -53 -24 -8 8 46 51 91 72 21 9 38 24 38 34 0 9 6 19 13
21 8 4 7 6 -3 6 -19 0 -55 -26 -55 -41 0 -6 -10 -12 -22 -13 -13 -1 -23 2 -23
6 0 13 91 74 105 71 9 -2 11 5 8 18 -3 12 0 20 8 20 7 0 9 3 6 6 -4 4 -23 -6
-44 -21 l-38 -28 34 36 c32 34 39 37 92 37 47 0 63 -5 88 -26z m-265 -533 c3
-5 -1 -12 -10 -15 -20 -8 -29 -1 -19 13 8 13 22 14 29 2z m330 -32 c-8 -14
-21 -11 -21 5 0 8 6 12 14 9 7 -3 10 -9 7 -14z m59 -2 c-5 -8 -8 -7 -11 1 -2
7 -9 9 -14 6 -7 -4 -8 -2 -4 4 4 6 13 9 21 6 8 -4 12 -11 8 -17z m-326 -6 c1
-13 -4 -18 -20 -16 -33 4 -34 5 -7 20 14 8 25 14 25 15 1 0 1 -8 2 -19z m93
-19 c-20 -9 -24 -32 -5 -32 8 0 15 -5 15 -11 0 -6 -9 -9 -20 -7 -12 2 -20 7
-20 13 1 5 -7 12 -17 16 -17 7 -17 8 0 8 10 1 15 6 12 11 -4 6 6 10 22 9 18 0
23 -3 13 -7z m168 -19 c-8 -10 -14 -11 -16 -4 -2 6 -8 9 -13 5 -5 -3 -9 -1 -9
5 0 12 21 20 38 13 10 -3 10 -7 0 -19z m-252 -21 c-4 -3 -14 2 -24 12 -16 18
-16 18 6 6 13 -6 21 -14 18 -18z m184 -2 c0 -5 -9 -10 -20 -10 -11 0 -20 5
-20 10 0 6 9 10 20 10 11 0 20 -4 20 -10z"/>
<path d="M830 1810 c0 -5 5 -10 11 -10 5 0 7 5 4 10 -3 6 -8 10 -11 10 -2 0
-4 -4 -4 -10z"/>
<path d="M966 983 c-4 -9 0 -23 9 -32 13 -14 17 -14 31 1 9 9 14 24 11 32 -8
21 -43 20 -51 -1z"/>
<path d="M2416 1958 c-20 -23 -36 -46 -36 -52 0 -6 7 1 17 14 9 14 27 37 41
53 14 15 23 27 20 27 -4 0 -23 -19 -42 -42z"/>
<path d="M120 1943 c0 -10 -9 -36 -19 -58 l-19 -40 -12 33 c-7 18 -15 31 -17
28 -3 -3 -16 7 -29 22 -17 20 -23 23 -24 11 0 -17 30 -49 47 -49 6 0 14 -11
17 -24 6 -24 36 -45 36 -25 0 6 9 22 20 36 21 27 27 68 10 78 -5 3 -10 -2 -10
-12z"/>
<path d="M61 1934 c0 -11 3 -14 6 -6 3 7 2 16 -1 19 -3 4 -6 -2 -5 -13z"/>
<path d="M2246 1912 c7 -15 14 -36 14 -47 0 -14 3 -16 8 -8 6 10 12 10 28 -2
10 -8 29 -15 42 -15 16 0 26 -9 33 -29 7 -21 22 -34 50 -45 61 -25 62 -20 9
30 -33 31 -50 55 -51 73 -2 23 -2 24 -6 4 -3 -15 -12 -23 -25 -23 -24 0 -80
38 -73 50 3 4 -6 15 -19 24 l-25 16 15 -28z"/>
<path d="M2434 1926 c-6 -15 19 -70 36 -81 5 -3 11 -23 12 -43 l1 -37 4 33 c2
17 8 32 14 32 5 0 9 5 9 10 0 6 -6 9 -12 8 -8 -2 -19 18 -28 44 -15 49 -26 59
-36 34z"/>
<path d="M2512 1900 c-1 -32 1 -41 8 -30 5 8 10 11 10 6 0 -5 7 -3 15 4 8 7
15 20 15 29 -1 14 -2 14 -14 -1 -18 -25 -24 -23 -29 10 -3 17 -4 11 -5 -18z"/>
<path d="M377 1896 c-3 -8 -18 -23 -32 -32 -23 -15 -28 -15 -36 -3 -6 10 -9
11 -9 1 0 -41 98 -1 100 41 0 13 -18 7 -23 -7z"/>
<path d="M197 1880 c-4 -14 -26 -45 -48 -68 -32 -34 -44 -41 -50 -30 -6 9 -9
9 -9 1 0 -22 18 -23 64 -4 48 21 61 43 54 97 l-3 29 -8 -25z"/>
<path d="M2175 1879 c-4 -11 -4 -23 -1 -26 3 -4 6 0 6 7 0 9 9 5 24 -9 38 -36
47 -20 10 16 -31 31 -33 31 -39 12z"/>
<path d="M2342 1880 c0 -14 2 -19 5 -12 2 6 2 18 0 25 -3 6 -5 1 -5 -13z"/>
<path d="M379 1843 c-13 -16 -12 -17 4 -4 9 7 17 15 17 17 0 8 -8 3 -21 -13z"/>
<path d="M2141 1824 c-1 -22 28 -128 34 -122 1 1 -5 35 -15 73 -11 39 -19 61
-19 49z"/>
<path d="M2192 1824 c10 -10 20 -16 22 -13 3 3 -5 11 -17 18 -21 13 -21 12 -5
-5z"/>
<path d="M308 1813 c7 -3 16 -2 19 1 4 3 -2 6 -13 5 -11 0 -14 -3 -6 -6z"/>
<path d="M422 1800 c0 -14 2 -19 5 -12 2 6 2 18 0 25 -3 6 -5 1 -5 -13z"/>
<path d="M236 1801 c-25 -39 54 -56 95 -21 l24 20 -29 -10 c-34 -13 -97 -3
-75 11 9 6 10 9 2 9 -6 0 -14 -4 -17 -9z"/>
<path d="M26 1779 c-27 -21 -33 -52 -16 -79 8 -13 10 -12 10 3 0 11 7 34 16
53 14 30 19 33 33 22 14 -12 14 -11 2 5 -17 21 -13 21 -45 -4z"/>
<path d="M2308 1793 c12 -2 20 -9 17 -14 -8 -13 -62 -11 -88 3 -20 10 -21 10
-9 -5 8 -9 29 -21 49 -28 29 -9 38 -9 50 4 21 21 9 47 -19 46 l-23 -2 23 -4z"/>
<path d="M2510 1775 c-11 -13 -10 -14 2 -10 10 4 20 -5 31 -27 16 -32 17 -32
17 -7 0 14 -8 33 -19 43 -16 15 -19 15 -31 1z"/>
<path d="M2215 1753 c17 -18 44 -34 60 -37 l30 -6 -30 11 c-16 6 -43 23 -60
38 l-30 26 30 -32z"/>
<path d="M180 1750 c-8 -5 -12 -11 -10 -14 3 -2 14 2 24 10 22 15 10 19 -14 4z"/>
<path d="M320 1745 c-14 -8 -20 -14 -14 -15 5 0 19 7 30 15 24 18 16 19 -16 0z"/>
<path d="M253 1723 c9 -2 23 -2 30 0 6 3 -1 5 -18 5 -16 0 -22 -2 -12 -5z"/>
<path d="M2395 1719 c-4 -6 -5 -12 -2 -15 2 -3 7 2 10 11 7 17 1 20 -8 4z"/>
<path d="M2473 1714 c-7 -7 -13 -30 -13 -51 1 -32 2 -35 11 -20 6 10 9 27 6
37 -3 11 0 21 6 23 5 1 8 8 6 14 -3 7 -8 7 -16 -3z"/>
<path d="M88 1711 c7 -4 12 -12 10 -17 -4 -15 22 -82 37 -94 8 -7 6 4 -6 27
-13 24 -17 48 -13 66 5 23 3 27 -18 27 -16 0 -19 -3 -10 -9z"/>
<path d="M196 1705 c10 -8 24 -14 29 -14 6 0 1 6 -9 14 -11 8 -24 15 -30 15
-5 0 -1 -7 10 -15z"/>
<path d="M2350 1690 c-23 -7 -23 -8 -3 -9 12 -1 25 -6 29 -12 5 -9 -12 -11
-65 -7 -66 5 -70 4 -50 -10 33 -23 102 -28 118 -8 10 12 11 19 2 29 -6 8 -8
17 -4 20 7 8 7 8 -27 -3z"/>
<path d="M190 1677 c0 -38 70 -46 115 -13 18 14 15 15 -40 11 -38 -2 -63 1
-67 8 -5 8 -8 6 -8 -6z"/>
<path d="M331 1674 c0 -11 3 -14 6 -6 3 7 2 16 -1 19 -3 4 -6 -2 -5 -13z"/>
<path d="M2180 1681 c0 -6 4 -13 10 -16 6 -3 7 1 4 9 -7 18 -14 21 -14 7z"/>
<path d="M2240 1643 c0 -5 12 -20 28 -34 l27 -24 -25 30 c-14 17 -26 32 -27
34 -2 2 -3 0 -3 -6z"/>
<path d="M315 1598 l-40 -43 43 40 c39 36 47 45 39 45 -2 0 -21 -19 -42 -42z"/>
<path d="M2187 1610 c4 -14 10 -43 14 -65 l6 -40 1 35 c1 19 -5 49 -13 65 -12
24 -13 25 -8 5z"/>
<path d="M2240 1597 c14 -16 24 -30 23 -33 -4 -5 7 -7 13 -2 2 3 -11 18 -29
34 l-32 29 25 -28z"/>
<path d="M2433 1593 c-12 -13 -19 -23 -14 -23 10 0 46 39 40 43 -2 2 -14 -7
-26 -20z"/>
<path d="M346 1578 c-3 -13 -6 -41 -6 -62 0 -38 0 -39 -20 -21 -20 18 -20 17
-19 -11 1 -18 3 -22 6 -11 4 15 7 16 20 6 11 -10 16 -10 22 -1 5 9 14 5 31
-13 13 -14 27 -25 31 -25 4 0 -9 16 -28 35 -33 33 -35 39 -30 80 7 48 3 60 -7
23z"/>
<path d="M372 1580 c0 -14 2 -19 5 -12 2 6 2 18 0 25 -3 6 -5 1 -5 -13z"/>
<path d="M180 1574 l-45 -14 40 6 c22 3 47 10 55 15 21 12 3 10 -50 -7z"/>
<path d="M2222 1539 c1 -25 -1 -50 -5 -56 -10 -16 23 -26 39 -12 11 9 14 8 14
-6 0 -10 3 -16 6 -12 3 3 3 15 -1 27 -6 20 -7 21 -21 3 -12 -16 -13 -15 -15
17 0 19 -5 46 -9 60 -7 20 -8 16 -8 -21z"/>
<path d="M2365 1560 c28 -12 47 -12 40 0 -3 6 -18 10 -33 9 -24 0 -25 -1 -7
-9z"/>
<path d="M372 1530 c0 -14 2 -19 5 -12 2 6 2 18 0 25 -3 6 -5 1 -5 -13z"/>
<path d="M421 1514 c0 -11 3 -14 6 -6 3 7 2 16 -1 19 -3 4 -6 -2 -5 -13z"/>
<path d="M210 1495 c-17 -20 -23 -120 -10 -146 7 -11 17 -18 25 -16 7 3 22 -4
33 -16 36 -38 50 -47 54 -36 2 6 -10 25 -27 43 -16 17 -35 40 -42 51 -11 19
-12 18 -12 -7 -1 -16 -5 -28 -11 -28 -13 0 -13 101 0 136 12 32 8 41 -10 19z"/>
<path d="M266 1495 c-3 -9 -5 -40 -4 -68 l1 -52 7 65 c7 70 6 80 -4 55z"/>
<path d="M2291 1505 c1 -19 18 -51 18 -35 0 8 -4 22 -9 30 -5 8 -9 11 -9 5z"/>
<path d="M2142 1480 c0 -14 2 -19 5 -12 2 6 2 18 0 25 -3 6 -5 1 -5 -13z"/>
<path d="M2354 1480 c16 -61 19 -140 5 -157 -12 -17 -12 -17 6 -1 20 19 24 61
11 111 -5 22 -4 27 6 21 7 -4 4 3 -7 17 -11 13 -22 26 -24 29 -2 3 -1 -6 3
-20z"/>
<path d="M128 1453 c-29 -32 -52 -72 -45 -80 3 -2 8 5 12 17 4 12 20 37 37 56
36 41 33 46 -4 7z"/>
<path d="M2442 1435 c15 -17 34 -46 42 -65 8 -19 15 -29 16 -22 0 22 -27 66
-57 92 l-28 25 27 -30z"/>
<path d="M10 1440 c-8 -5 -12 -11 -10 -14 3 -2 14 2 24 10 22 15 10 19 -14 4z"/>
<path d="M320 1431 c5 -11 15 -23 21 -27 6 -3 3 5 -6 20 -20 30 -30 35 -15 7z"/>
<path d="M2157 1433 c3 -7 6 -13 8 -13 1 0 7 6 13 13 8 10 6 13 -7 13 -11 0
-17 -6 -14 -13z"/>
<path d="M2313 1410 c0 -25 2 -35 4 -22 2 12 2 32 0 45 -2 12 -4 2 -4 -23z"/>
<path d="M2391 1435 c1 -19 18 -51 18 -35 0 8 -4 22 -9 30 -5 8 -9 11 -9 5z"/>
<path d="M161 1394 c0 -11 3 -14 6 -6 3 7 2 16 -1 19 -3 4 -6 -2 -5 -13z"/>
<path d="M2232 1398 c-19 -19 -14 -48 10 -57 18 -7 25 -3 35 17 16 31 11 37
-16 21 -24 -16 -39 -5 -21 16 15 18 9 20 -8 3z"/>
<path d="M14 1378 c-10 -12 -14 -19 -8 -15 7 4 9 -11 6 -48 -2 -30 -1 -62 2
-71 6 -16 8 -16 24 0 12 14 14 20 5 23 -15 6 -17 71 -3 107 12 32 0 34 -26 4z"/>
<path d="M290 1398 c0 -2 7 -21 15 -43 9 -26 14 -32 15 -19 0 13 8 24 20 27
11 3 20 10 20 15 0 6 -8 8 -19 5 -10 -3 -22 0 -25 6 -6 9 -26 16 -26 9z"/>
<path d="M2538 1331 c4 -60 -10 -104 -43 -131 -15 -12 -19 -12 -31 5 -8 10
-14 14 -14 8 0 -6 7 -16 15 -23 13 -11 20 -9 43 13 22 21 31 24 40 15 9 -9 12
6 12 69 0 54 -4 84 -13 91 -11 9 -12 0 -9 -47z"/>
<path d="M2411 1364 c0 -11 3 -14 6 -6 3 7 2 16 -1 19 -3 4 -6 -2 -5 -13z"/>
<path d="M2326 1353 c-3 -11 -18 -31 -32 -44 -21 -20 -27 -21 -34 -9 -8 12
-10 11 -10 -6 0 -32 25 -36 52 -9 44 44 49 54 40 72 -9 15 -10 14 -16 -4z"/>
<path d="M73 1315 c0 -27 2 -38 4 -22 2 15 2 37 0 50 -2 12 -4 0 -4 -28z"/>
<path d="M150 1328 l0 -31 -25 23 c-14 13 -25 18 -25 12 0 -6 6 -17 13 -23 15
-14 10 -76 -7 -99 -10 -13 -9 -13 7 -1 10 8 17 27 17 47 0 24 5 34 15 34 10 0
15 11 15 35 0 19 -2 35 -5 35 -3 0 -5 -14 -5 -32z"/>
<path d="M1918 1336 c-11 -8 -18 -26 -18 -44 0 -25 -8 -37 -37 -57 -47 -31
-53 -31 -53 0 0 30 -3 31 -46 4 -28 -17 -34 -27 -34 -55 0 -30 -6 -38 -47 -64
l-48 -29 -5 30 -5 29 -37 -25 c-31 -21 -38 -32 -38 -58 0 -27 -7 -37 -43 -59
l-42 -27 -5 28 -5 29 -42 -25 c-37 -21 -43 -30 -43 -58 0 -26 -7 -39 -30 -55
l-30 -21 0 -274 0 -274 43 24 c23 12 80 35 127 50 241 77 321 116 385 187 70
78 74 99 77 451 2 169 1 307 -2 307 -3 0 -13 -7 -22 -14z m-365 -483 l59 -97
-12 -61 c-19 -102 -12 -95 -96 -95 -52 0 -74 4 -74 13 0 8 -3 7 -10 -3 -13
-21 -18 -12 -35 69 l-15 72 57 100 c32 54 60 99 63 99 3 0 31 -44 63 -97z
m287 66 c0 -5 -16 -9 -35 -9 -22 0 -35 5 -35 13 0 9 11 12 35 9 19 -2 35 -8
35 -13z"/>
<path d="M1472 875 c-6 -14 -10 -25 -8 -25 2 0 11 11 20 25 9 14 13 25 8 25
-5 0 -14 -11 -20 -25z"/>
<path d="M1537 811 c21 -38 39 -68 41 -66 5 4 -68 135 -74 135 -3 0 12 -31 33
-69z"/>
<path d="M1426 794 c-15 -26 -25 -60 -25 -78 l2 -31 6 35 c3 19 16 54 29 78
30 57 20 54 -12 -4z"/>
<path d="M1500 749 c0 -5 -4 -8 -8 -5 -4 2 -9 -3 -9 -12 -1 -9 -4 -28 -5 -42
-3 -21 1 -25 21 -22 31 3 39 11 23 21 -7 4 -14 22 -14 39 -1 29 -8 47 -8 21z
m-5 -69 c3 -5 1 -10 -4 -10 -6 0 -11 5 -11 10 0 6 2 10 4 10 3 0 8 -4 11 -10z"/>
<path d="M1572 695 c0 -16 2 -22 5 -12 2 9 2 23 0 30 -3 6 -5 -1 -5 -18z"/>
<path d="M1412 655 c0 -16 2 -22 5 -12 2 9 2 23 0 30 -3 6 -5 -1 -5 -18z"/>
<path d="M1562 635 c0 -16 2 -22 5 -12 2 9 2 23 0 30 -3 6 -5 -1 -5 -18z"/>
<path d="M2443 1303 c-15 -16 -18 -23 -8 -23 7 0 15 -6 18 -12 2 -7 7 2 11 20
10 42 7 44 -21 15z"/>
<path d="M2502 1300 c0 -19 2 -27 5 -17 2 9 2 25 0 35 -3 9 -5 1 -5 -18z"/>
<path d="M243 1273 c9 -2 25 -2 35 0 9 3 1 5 -18 5 -19 0 -27 -2 -17 -5z"/>
<path d="M161 1236 c-13 -14 -21 -31 -18 -38 4 -10 6 -10 6 1 1 8 11 25 23 38
12 13 19 23 16 23 -2 0 -15 -11 -27 -24z"/>
<path d="M360 1256 c0 -2 8 -10 18 -17 15 -13 16 -12 3 4 -13 16 -21 21 -21
13z"/>
<path d="M2360 1249 c14 -6 34 -18 45 -27 12 -9 8 -5 -7 11 -16 15 -36 27 -46
26 -12 0 -9 -3 8 -10z"/>
<path d="M239 1233 c-13 -16 -12 -17 4 -4 16 13 21 21 13 21 -2 0 -10 -8 -17
-17z"/>
<path d="M280 1240 c8 -5 20 -10 25 -10 6 0 3 5 -5 10 -8 5 -19 10 -25 10 -5
0 -3 -5 5 -10z"/>
<path d="M65 1220 c10 -11 20 -20 23 -20 3 0 -3 9 -13 20 -10 11 -20 20 -23
20 -3 0 3 -9 13 -20z"/>
<path d="M2171 1205 c-17 -20 -31 -39 -31 -42 0 -4 3 -3 8 3 4 5 20 24 36 42
17 17 27 32 24 32 -3 0 -20 -16 -37 -35z"/>
<path d="M196 1198 c-4 -21 -2 -34 6 -40 18 -11 38 -10 38 2 0 6 -4 10 -10 10
-5 0 -10 11 -10 24 0 37 -17 40 -24 4z"/>
<path d="M264 1215 c-12 -31 3 -44 46 -38 43 6 80 -15 80 -45 0 -13 -3 -13
-18 1 -24 22 -31 21 -41 -5 -5 -15 -3 -37 5 -61 7 -20 11 -44 8 -52 -4 -8 -2
-15 4 -15 23 0 29 69 11 117 l-10 28 21 -21 c15 -15 21 -34 22 -65 0 -24 4
-53 9 -64 7 -14 7 -10 3 15 -4 27 -3 31 6 20 8 -12 9 -8 4 15 -4 23 -3 27 5
15 11 -15 11 -13 -4 82 -8 48 -31 68 -81 68 -30 0 -46 -5 -54 -17 -10 -15 -11
-14 -7 10 5 29 0 36 -9 12z"/>
<path d="M2288 1213 c12 -8 22 -22 22 -31 0 -13 -2 -13 -18 1 -25 23 -74 21
-103 -2 -19 -15 -24 -32 -29 -84 -3 -39 -2 -63 4 -60 5 4 7 -3 4 -15 -4 -14
-2 -20 4 -16 6 4 8 -2 3 -17 -4 -13 -4 -21 0 -17 7 6 13 67 15 143 1 11 8 27
17 37 18 20 68 24 78 8 8 -13 35 6 35 25 0 14 -32 45 -46 44 -5 0 1 -7 14 -16z"/>
<path d="M2360 1188 c0 -22 -3 -29 -9 -20 -6 10 -10 8 -14 -8 -5 -19 -2 -21
19 -17 30 5 32 -11 2 -23 -16 -6 -18 -9 -7 -9 27 -1 39 22 32 62 -7 48 -23 58
-23 15z"/>
<path d="M0 1186 c0 -2 8 -10 18 -17 15 -13 16 -12 3 4 -13 16 -21 21 -21 13z"/>
<path d="M2431 1167 c-1 -39 -44 -79 -79 -75 -17 2 -27 9 -27 20 0 25 -11 30
-12 6 -4 -46 34 -60 87 -33 29 15 49 67 37 97 -3 7 -6 0 -6 -15z"/>
<path d="M140 1153 c0 -34 34 -63 74 -63 38 0 59 19 54 49 -3 18 -4 18 -23 4
-16 -13 -17 -15 -2 -10 23 9 22 -10 -2 -23 -26 -14 -68 5 -86 39 -14 25 -14
25 -15 4z"/>
<path d="M38 1140 c-15 -17 -15 -18 5 -24 12 -3 23 -3 26 -1 2 3 -1 5 -8 5 -8
0 -10 7 -6 20 8 24 5 24 -17 0z"/>
<path d="M2510 1144 c1 -13 29 -48 34 -43 2 2 -4 15 -15 28 -10 13 -19 19 -19
15z"/>
<path d="M2204 1118 c-4 -6 -3 -8 3 -5 5 4 8 -16 5 -52 -3 -37 0 -61 7 -65 7
-5 11 1 11 14 0 11 6 36 14 54 9 22 10 38 4 49 -10 20 -34 22 -44 5z"/>
<path d="M284 1107 c-3 -8 0 -26 5 -40 10 -27 6 -77 -10 -108 -5 -11 -3 -16 6
-16 8 0 20 16 26 34 9 29 9 52 -3 131 -2 16 -17 16 -24 -1z"/>
<path d="M103 1094 c35 -19 34 -30 -4 -53 -26 -16 -28 -19 -12 -25 9 -4 14 -4
11 0 -4 3 5 17 20 30 l27 24 -24 20 c-13 11 -28 20 -35 20 -6 -1 1 -8 17 -16z"/>
<path d="M2262 1068 c-13 -49 1 -134 20 -122 8 5 9 2 5 -9 -3 -9 -3 -16 2 -14
5 1 18 -9 31 -23 l22 -25 -21 31 c-31 47 -43 84 -28 84 8 0 8 3 -2 9 -13 9
-12 24 4 79 6 16 3 22 -9 22 -9 0 -19 -13 -24 -32z"/>
<path d="M207 1033 c-13 -13 -20 -14 -29 -5 -15 15 -28 15 -28 0 0 -6 3 -8 7
-5 3 4 12 2 19 -4 10 -8 20 -6 40 10 15 12 23 21 17 21 -5 0 -16 -8 -26 -17z"/>
<path d="M251 1023 c-1 -26 2 -31 15 -26 9 3 11 9 6 12 -5 3 -12 15 -15 26 -3
13 -5 9 -6 -12z"/>
<path d="M2440 1045 c0 -2 14 -13 30 -25 17 -12 30 -18 30 -13 0 4 -14 16 -30
25 -17 9 -30 15 -30 13z"/>
<path d="M2320 1029 c0 -5 5 -7 10 -4 6 3 10 8 10 11 0 2 -4 4 -10 4 -5 0 -10
-5 -10 -11z"/>
<path d="M2364 1013 c15 -18 22 -20 33 -12 7 6 13 14 13 17 0 3 -5 1 -12 -6
-9 -9 -16 -8 -32 6 -21 17 -21 17 -2 -5z"/>
<path d="M0 1002 c0 -31 66 -46 88 -19 8 9 2 12 -25 14 -19 1 -41 7 -49 14
-11 9 -14 8 -14 -9z"/>
<path d="M2420 1008 c0 -20 47 -78 63 -78 6 0 1 7 -12 16 -13 9 -29 31 -37 48
-7 17 -13 23 -14 14z"/>
<path d="M113 973 c-17 -18 -28 -33 -24 -33 9 0 66 59 60 63 -2 1 -18 -12 -36
-30z"/>
<path d="M2315 990 c-3 -5 -1 -10 4 -10 6 0 11 5 11 10 0 6 -2 10 -4 10 -3 0
-8 -4 -11 -10z"/>
<path d="M2472 990 c10 -35 88 -48 88 -15 0 10 -10 12 -36 8 -25 -4 -39 -2
-46 8 -8 12 -9 11 -6 -1z"/>
<path d="M189 963 c-8 -9 -27 -24 -44 -35 -16 -10 -24 -18 -17 -18 12 0 93 69
81 70 -4 0 -13 -7 -20 -17z"/>
<path d="M2140 961 c0 -11 3 -22 8 -24 4 -3 7 6 7 19 0 13 -3 24 -7 24 -5 0
-8 -9 -8 -19z"/>
<path d="M2385 941 c30 -35 69 -51 117 -49 39 1 40 2 8 5 -60 6 -77 12 -112
40 -27 23 -30 23 -13 4z"/>
<path d="M409 933 c-1 -5 -2 -17 -3 -28 -1 -15 -12 -23 -46 -31 -25 -7 -38
-14 -30 -17 8 -3 23 -8 33 -11 30 -10 18 -26 -20 -26 -42 0 -38 -9 9 -19 42
-9 34 -26 -11 -25 -22 1 -28 -1 -20 -7 8 -5 23 -9 35 -9 11 0 31 -11 44 -25
28 -30 17 -32 -27 -5 -46 28 -41 19 15 -26 26 -21 41 -31 34 -22 -10 13 -10
17 0 21 9 3 7 11 -10 29 -13 14 -20 32 -17 40 4 9 2 19 -3 22 -6 3 -8 15 -5
25 3 10 -1 22 -7 26 -8 5 -1 14 20 27 26 15 30 22 20 33 -6 8 -9 19 -5 25 3 5
4 10 1 10 -3 0 -7 -3 -7 -7z"/>
<path d="M244 908 l-19 -23 23 19 c21 18 27 26 19 26 -2 0 -12 -10 -23 -22z"/>
<path d="M2508 923 c6 -2 18 -2 25 0 6 3 1 5 -13 5 -14 0 -19 -2 -12 -5z"/>
<path d="M2162 915 c4 -4 3 -14 -3 -22 -13 -15 4 -43 27 -43 15 0 18 -12 7
-24 -4 -3 -7 -24 -8 -46 -1 -22 -9 -48 -19 -59 -10 -11 -15 -25 -11 -31 4 -6
1 -18 -7 -28 -7 -9 8 1 35 23 49 41 62 57 25 31 -37 -26 -55 -20 -28 9 14 15
35 25 51 25 15 0 30 3 33 8 2 4 -14 6 -36 4 -31 -3 -39 -1 -36 9 3 8 18 15 34
17 16 2 33 7 37 12 5 4 -3 5 -17 3 -14 -3 -33 -2 -42 1 -24 9 1 36 35 37 26 1
26 1 -4 10 -69 23 -78 29 -66 43 9 11 9 16 -1 22 -7 4 -10 4 -6 -1z"/>
<path d="M73 903 c9 -2 23 -2 30 0 6 3 -1 5 -18 5 -16 0 -22 -2 -12 -5z"/>
<path d="M120 820 c8 -5 20 -10 25 -10 6 0 3 5 -5 10 -8 5 -19 10 -25 10 -5 0
-3 -5 5 -10z"/>
<path d="M2410 796 c-66 -27 -140 -65 -140 -71 0 -2 37 13 83 34 45 21 93 43
107 49 49 21 4 11 -50 -12z"/>
<path d="M170 800 c8 -5 20 -10 25 -10 6 0 3 5 -5 10 -8 5 -19 10 -25 10 -5 0
-3 -5 5 -10z"/>
<path d="M3 755 c0 -27 2 -38 4 -22 2 15 2 37 0 50 -2 12 -4 0 -4 -28z"/>
<path d="M46 787 c3 -10 9 -15 12 -12 3 3 0 11 -7 18 -10 9 -11 8 -5 -6z"/>
<path d="M231 776 c2 -2 15 -9 29 -15 24 -11 24 -11 6 3 -16 13 -49 24 -35 12z"/>
<path d="M135 763 c3 -3 -1 -13 -8 -21 -8 -11 -8 -14 0 -9 7 4 16 -4 22 -20
10 -25 11 -25 6 -3 -3 14 -7 30 -9 37 -1 7 -5 15 -9 18 -4 3 -5 2 -2 -2z"/>
<path d="M62 729 c-1 -20 -15 -63 -32 -95 -16 -32 -27 -60 -26 -62 2 -2 18 26
36 61 22 45 30 74 27 98 l-4 34 -1 -36z"/>
<path d="M2513 715 c0 -27 2 -38 4 -22 2 15 2 37 0 50 -2 12 -4 0 -4 -28z"/>
<path d="M183 726 c15 -14 39 -38 53 -53 l26 -28 -21 32 c-12 18 -36 42 -54
54 l-32 21 28 -26z"/>
<path d="M310 733 c14 -10 45 -36 70 -58 l45 -39 -37 40 c-21 22 -52 47 -70
57 -32 17 -32 17 -8 0z"/>
<path d="M2377 707 c-37 -32 -77 -84 -77 -101 0 -5 12 9 26 30 15 21 43 53 63
71 47 42 37 42 -12 0z"/>
<path d="M2189 663 l-34 -38 38 34 c20 19 37 36 37 38 0 8 -8 0 -41 -34z"/>
<path d="M142 642 c-2 -46 -21 -63 -47 -42 -9 8 -15 8 -15 2 0 -6 10 -14 21
-17 32 -11 51 15 46 61 l-4 39 -1 -43z"/>
<path d="M161 664 c0 -11 3 -14 6 -6 3 7 2 16 -1 19 -3 4 -6 -2 -5 -13z"/>
<path d="M2411 664 c0 -11 3 -14 6 -6 3 7 2 16 -1 19 -3 4 -6 -2 -5 -13z"/>
<path d="M2431 664 c0 -11 3 -14 6 -6 3 7 2 16 -1 19 -3 4 -6 -2 -5 -13z"/>
<path d="M2521 655 c0 -5 8 -26 19 -45 11 -19 19 -30 19 -25 0 6 -8 26 -19 45
-11 19 -19 31 -19 25z"/>
<path d="M189 618 c-1 -32 -1 -32 -10 -8 -7 21 -8 20 -4 -9 7 -44 14 -51 28
-26 11 19 12 18 18 -10 7 -30 7 -30 8 -3 0 15 -3 30 -9 33 -5 3 -10 15 -10 25
0 34 -20 32 -21 -2z"/>
<path d="M2376 625 c-4 -11 -12 -28 -17 -37 -12 -23 -11 -37 1 -18 8 13 10 12
10 -2 0 -10 7 -18 15 -18 16 0 17 16 5 65 -6 27 -8 28 -14 10z"/>
<path d="M2402 620 c0 -14 2 -19 5 -12 2 6 2 18 0 25 -3 6 -5 1 -5 -13z"/>
<path d="M337 570 c4 -39 2 -60 -5 -60 -6 0 -12 5 -14 11 -2 6 -12 0 -23 -12
-11 -13 -13 -18 -5 -13 8 5 26 9 40 9 21 0 26 6 31 40 3 22 7 34 8 26 0 -8 4
-12 7 -9 7 8 -24 68 -35 68 -5 0 -7 -27 -4 -60z"/>
<path d="M2219 595 c-26 -49 1 -134 34 -107 10 9 17 8 27 -1 12 -10 12 -9 1 6
-10 13 -17 14 -27 6 -11 -9 -14 2 -16 58 l-3 68 -16 -30z"/>
<path d="M2430 591 c0 -6 4 -13 10 -16 6 -3 7 1 4 9 -7 18 -14 21 -14 7z"/>
<path d="M2476 583 c-4 -9 -4 -14 0 -10 4 4 13 -1 21 -11 12 -15 13 -14 2 8
-16 33 -16 33 -23 13z"/>
<path d="M2292 570 c0 -14 2 -19 5 -12 2 6 2 18 0 25 -3 6 -5 1 -5 -13z"/>
<path d="M34 526 c-35 -41 -45 -69 -15 -42 12 11 21 24 21 29 0 6 7 19 17 29
9 10 14 18 11 18 -2 0 -18 -15 -34 -34z"/>
<path d="M382 520 c0 -19 2 -27 5 -17 2 9 2 25 0 35 -3 9 -5 1 -5 -18z"/>
<path d="M2191 534 c0 -11 3 -14 6 -6 3 7 2 16 -1 19 -3 4 -6 -2 -5 -13z"/>
<path d="M2350 509 l-5 -46 32 15 c18 9 31 17 29 20 -2 2 -13 -1 -25 -7 -18
-10 -20 -8 -23 26 -3 38 -3 38 -8 -8z"/>
<path d="M2523 524 c9 -11 15 -23 12 -26 -3 -3 1 -11 10 -18 29 -24 17 15 -12
41 -20 17 -23 18 -10 3z"/>
<path d="M93 523 c9 -2 23 -2 30 0 6 3 -1 5 -18 5 -16 0 -22 -2 -12 -5z"/>
<path d="M410 475 c0 -46 -5 -60 -31 -92 l-32 -38 37 37 c33 34 36 43 36 93 0
30 -2 55 -5 55 -3 0 -5 -25 -5 -55z"/>
<path d="M2161 514 c0 -11 3 -14 6 -6 3 7 2 16 -1 19 -3 4 -6 -2 -5 -13z"/>
<path d="M2498 503 c7 -3 16 -2 19 1 4 3 -2 6 -13 5 -11 0 -14 -3 -6 -6z"/>
<path d="M220 480 c42 -42 9 -120 -52 -125 -3 0 -10 -3 -14 -7 -4 -5 9 -8 29
-8 62 0 91 57 62 123 -5 12 -2 17 11 17 25 0 14 6 -23 13 -32 6 -32 6 -13 -13z"/>
<path d="M347 455 c-15 -14 -24 -25 -19 -25 5 0 19 11 32 25 30 32 23 32 -13
0z"/>
<path d="M2152 460 c0 -14 2 -19 5 -12 2 6 2 18 0 25 -3 6 -5 1 -5 -13z"/>
<path d="M2190 473 c0 -14 57 -63 73 -63 7 0 -2 9 -20 19 -17 11 -36 28 -42
38 -6 10 -11 13 -11 6z"/>
<path d="M88 450 c41 -25 43 -48 3 -42 -16 2 -32 -1 -35 -7 -5 -7 7 -11 33
-11 33 0 41 4 41 18 0 22 -40 62 -61 62 -8 0 1 -9 19 -20z"/>
<path d="M123 459 c11 -6 17 -22 17 -46 0 -26 4 -34 14 -30 8 3 17 1 20 -6 2
-7 5 -4 5 6 2 32 -39 86 -64 86 -5 0 -2 -4 8 -10z"/>
<path d="M2475 450 c11 -5 27 -9 35 -9 13 -1 13 0 0 9 -8 5 -24 9 -35 9 l-20
0 20 -9z"/>
<path d="M2328 444 c-5 -4 -8 -24 -8 -45 0 -55 57 -96 98 -70 10 6 9 11 -4 22
-12 9 -15 10 -10 2 11 -20 -8 -15 -37 7 -17 14 -27 32 -29 56 -2 20 -6 32 -10
28z"/>
<path d="M2432 442 c-7 -5 -16 -23 -21 -40 -8 -28 -7 -32 9 -32 13 0 17 5 13
19 -3 10 0 28 6 40 13 23 12 25 -7 13z"/>
<path d="M2460 425 c-7 -9 -11 -17 -9 -20 3 -2 10 5 17 15 14 24 10 26 -8 5z"/>
<path d="M2161 418 c-1 -10 11 -30 27 -46 15 -15 19 -19 10 -7 -9 11 -21 31
-27 45 -7 17 -10 20 -10 8z"/>
<path d="M280 411 c0 -5 5 -13 11 -16 7 -5 4 -14 -7 -28 -18 -22 -18 -22 5 0
22 20 23 23 7 38 -9 9 -16 12 -16 6z"/>
<path d="M2284 401 c4 -7 -2 -14 -15 -19 l-23 -9 23 -6 c13 -3 20 -3 17 0 -3
4 -1 12 5 19 7 8 6 14 -2 20 -8 4 -9 3 -5 -5z"/>
<path d="M2462 387 c-9 -10 -4 -12 23 -9 24 3 39 -2 54 -17 12 -12 21 -16 21
-11 0 12 -59 50 -76 50 -6 0 -16 -6 -22 -13z"/>
<path d="M502 365 c0 -16 2 -22 5 -12 2 9 2 23 0 30 -3 6 -5 -1 -5 -18z"/>
<path d="M11 338 c-1 -16 2 -28 7 -28 12 1 47 30 35 30 -7 0 -15 -6 -19 -12
-6 -9 -10 -5 -15 12 l-7 25 -1 -27z"/>
<path d="M2072 325 c0 -16 2 -22 5 -12 2 9 2 23 0 30 -3 6 -5 -1 -5 -18z"/>
<path d="M2296 335 c4 -8 8 -15 10 -15 2 0 4 7 4 15 0 8 -4 15 -10 15 -5 0 -7
-7 -4 -15z"/>
<path d="M82 327 c-8 -9 -9 -29 -4 -58 l8 -44 8 54 c8 58 5 69 -12 48z"/>
<path d="M282 324 c10 -10 20 -16 22 -13 3 3 -5 11 -17 18 -21 13 -21 12 -5
-5z"/>
<path d="M149 293 c-3 -24 -1 -43 4 -43 14 0 19 29 9 57 -9 27 -9 27 -13 -14z"/>
<path d="M2477 324 c-8 -9 2 -56 15 -69 7 -7 9 3 6 28 -4 36 -2 38 19 34 12
-2 20 0 17 4 -6 10 -48 12 -57 3z"/>
<path d="M492 295 c0 -16 2 -22 5 -12 2 9 2 23 0 30 -3 6 -5 -1 -5 -18z"/>
<path d="M327 295 c-6 -15 10 -32 20 -21 4 3 1 6 -7 6 -10 0 -10 3 0 15 7 9 8
15 2 15 -5 0 -12 -7 -15 -15z"/>
<path d="M1911 296 c-13 -7 -19 -16 -14 -19 6 -4 18 2 28 13 21 23 19 24 -14
6z"/>
<path d="M1976 295 c-9 -26 -7 -32 5 -12 6 10 9 21 6 23 -2 3 -7 -2 -11 -11z"/>
<path d="M2385 300 c-3 -6 1 -7 9 -4 13 5 16 -1 16 -30 0 -27 3 -34 15 -30 12
5 12 0 -2 -35 -22 -55 -55 -84 -98 -85 -41 -1 -46 -11 -9 -20 30 -8 95 11 91
26 -1 6 4 13 12 16 9 3 11 0 7 -9 -5 -8 8 3 28 23 20 21 36 46 36 55 -1 11 -6
7 -14 -12 -13 -31 -46 -65 -46 -48 0 5 4 13 9 19 5 5 13 26 16 47 6 30 4 37
-9 37 -11 0 -16 9 -16 30 0 23 -5 30 -19 30 -11 0 -23 -4 -26 -10z"/>
<path d="M2232 286 c10 -7 14 -17 10 -21 -4 -5 -1 -5 6 -1 7 4 10 11 7 16 -3
4 1 11 7 13 7 3 0 6 -17 6 -27 0 -28 -1 -13 -13z"/>
<path d="M230 279 c-12 -9 -12 -10 3 -5 10 3 28 1 40 -5 21 -10 21 -10 3 5
-23 19 -26 19 -46 5z"/>
<path d="M401 258 c-13 -21 -13 -22 2 -9 10 7 17 9 17 4 0 -15 -31 -40 -70
-57 -19 -8 -28 -15 -19 -16 22 0 79 40 98 70 9 13 11 21 4 17 -6 -4 -13 -3
-15 3 -2 6 -9 0 -17 -12z"/>
<path d="M2087 220 c6 -68 13 -93 13 -45 0 28 0 28 54 -24 30 -28 57 -51 61
-51 3 0 -22 26 -56 57 -41 39 -63 69 -69 93 -6 25 -7 17 -3 -30z"/>
<path d="M2337 265 c3 -8 9 -12 14 -9 12 7 11 11 -5 17 -10 4 -13 1 -9 -8z"/>
<path d="M120 229 c4 -23 20 -53 36 -70 15 -16 24 -29 18 -30 -5 0 0 -4 11 -9
28 -12 93 -12 100 0 4 6 -9 10 -33 10 -45 0 -69 21 -102 93 -27 58 -40 61 -30
6z"/>
<path d="M368 263 c7 -3 16 -2 19 1 4 3 -2 6 -13 5 -11 0 -14 -3 -6 -6z"/>
<path d="M477 243 c-4 -10 -18 -34 -33 -53 l-26 -35 30 33 c21 23 31 30 35 20
3 -7 6 2 6 20 1 35 -4 41 -12 15z"/>
<path d="M2146 251 c-9 -14 30 -57 68 -75 19 -9 51 -15 73 -15 35 1 34 2 -14
9 -50 7 -113 41 -113 61 0 6 5 7 12 3 6 -4 8 -3 4 4 -4 7 6 12 26 15 29 3 28
4 -9 5 -23 1 -44 -2 -47 -7z"/>
<path d="M2275 248 c-11 -7 -36 -15 -55 -19 -32 -6 -32 -7 -7 -8 26 -1 87 23
87 34 0 7 -2 6 -25 -7z"/>
<path d="M541 235 c-1 -20 44 -125 53 -125 3 0 2 7 -1 17 -5 12 -3 14 7 8 8
-5 4 5 -7 21 -12 16 -28 45 -36 64 -11 25 -16 29 -16 15z"/>
<path d="M348 233 c6 -2 18 -2 25 0 6 3 1 5 -13 5 -14 0 -19 -2 -12 -5z"/>
<path d="M1882 215 c0 -16 2 -22 5 -12 2 9 2 23 0 30 -3 6 -5 -1 -5 -18z"/>
<path d="M2006 183 c-24 -50 -30 -55 -37 -38 -7 19 -8 19 -8 -2 -1 -33 35 -30
53 5 14 27 31 92 24 92 -2 0 -17 -26 -32 -57z"/>
<path d="M17 209 c13 -14 23 -38 23 -56 0 -17 7 -36 15 -43 8 -7 12 -16 9 -21
-3 -5 2 -6 10 -3 14 5 13 9 -4 31 -11 14 -20 36 -20 48 0 12 -12 32 -27 46
l-28 24 22 -26z"/>
<path d="M688 195 c-2 -19 0 -35 4 -35 4 0 8 16 8 35 0 19 -2 35 -4 35 -2 0
-6 -16 -8 -35z"/>
<path d="M2051 214 c0 -11 3 -14 6 -6 3 7 2 16 -1 19 -3 4 -6 -2 -5 -13z"/>
<path d="M511 194 c0 -16 4 -38 9 -49 6 -13 7 -5 3 25 -7 53 -13 66 -12 24z"/>
<path d="M615 193 c-3 -14 -4 -28 0 -31 3 -3 5 2 5 11 0 20 11 22 28 5 6 -6
13 -10 15 -7 2 2 -7 14 -19 25 l-22 22 -7 -25z"/>
<path d="M806 180 c-20 -22 -36 -46 -36 -53 0 -6 6 -3 12 8 6 11 24 35 41 53
17 17 28 32 25 32 -3 0 -22 -18 -42 -40z"/>
<path d="M1720 206 c0 -2 8 -10 18 -17 15 -13 16 -12 3 4 -13 16 -21 21 -21
13z"/>
<path d="M1934 178 c-12 -14 -13 -18 -3 -10 9 6 19 9 22 5 4 -3 7 1 7 10 0 22
-3 21 -26 -5z"/>
<path d="M2350 185 c-14 -8 -20 -14 -14 -15 5 0 19 7 30 15 24 18 16 19 -16 0z"/>
<path d="M2543 188 c-6 -7 -13 -26 -17 -43 -4 -16 -14 -37 -22 -47 -10 -11
-12 -18 -5 -23 6 -3 11 -10 11 -14 0 -11 -46 -31 -71 -31 -11 0 -18 -4 -14 -9
3 -6 -19 -12 -52 -14 l-58 -3 63 -2 c36 -1 62 2 62 8 0 6 8 10 18 10 27 0 64
30 58 47 -3 8 1 24 9 36 8 12 15 33 15 47 0 14 5 31 12 38 7 7 9 12 6 12 -3 0
-10 -6 -15 -12z"/>
<path d="M100 187 c0 -2 15 -16 33 -33 l32 -29 -29 33 c-28 30 -36 37 -36 29z"/>
<path d="M248 183 c7 -3 16 -2 19 1 4 3 -2 6 -13 5 -11 0 -14 -3 -6 -6z"/>
<path d="M474 90 c0 -52 1 -74 3 -47 2 26 2 68 0 95 -2 26 -3 4 -3 -48z"/>
<path d="M857 173 c-9 -14 22 -83 37 -82 6 0 28 20 48 43 34 39 35 42 15 43
-12 1 -36 -9 -53 -22 l-33 -25 -3 27 c-2 18 -6 24 -11 16z"/>
<path d="M1616 143 c16 -16 38 -39 47 -53 18 -25 18 -25 33 -5 14 19 12 22
-20 53 -22 20 -46 32 -63 32 l-27 0 30 -27z"/>
<path d="M2051 152 c-1 -31 -27 -81 -59 -114 -25 -28 -55 -40 -34 -15 9 10 4
16 -23 26 -18 6 -36 20 -38 29 -3 9 -5 -2 -4 -25 1 -40 2 -41 36 -46 29 -3 42
1 64 22 37 34 69 97 64 124 -4 21 -4 21 -6 -1z"/>
<path d="M384 138 l-19 -23 23 19 c21 18 27 26 19 26 -2 0 -12 -10 -23 -22z"/>
<path d="M1030 155 c0 -2 19 -13 43 -23 30 -13 47 -29 57 -51 7 -17 15 -30 17
-27 8 8 -27 65 -46 76 -29 15 -71 30 -71 25z"/>
<path d="M1710 145 c0 -8 4 -15 10 -15 5 0 7 7 4 15 -4 8 -8 15 -10 15 -2 0
-4 -7 -4 -15z"/>
<path d="M990 135 c-19 -22 -8 -25 13 -3 9 10 13 18 8 18 -5 0 -14 -7 -21 -15z"/>
<path d="M1786 137 c3 -10 9 -15 12 -12 3 3 0 11 -7 18 -10 9 -11 8 -5 -6z"/>
<path d="M836 119 c-4 -14 -6 -45 -4 -70 3 -42 5 -44 36 -47 l33 -3 -22 43
c-12 24 -25 57 -29 73 l-7 30 -7 -26z"/>
<path d="M1473 127 c-32 -56 -35 -62 -21 -45 8 10 27 24 42 32 25 13 25 14 6
19 -11 3 -23 0 -27 -6z"/>
<path d="M1538 133 c7 -3 16 -2 19 1 4 3 -2 6 -13 5 -11 0 -14 -3 -6 -6z"/>
<path d="M2103 65 c0 -38 2 -53 4 -32 2 20 2 52 0 70 -2 17 -4 1 -4 -38z"/>
<path d="M530 114 c0 -7 17 -29 38 -51 20 -21 28 -28 16 -14 -11 14 -28 37
-37 51 -10 13 -17 20 -17 14z"/>
<path d="M1731 109 c-1 -9 -12 -37 -26 -63 l-25 -47 32 3 c30 3 33 6 36 38 2
20 -1 47 -7 60 -6 15 -10 19 -10 9z"/>
<path d="M618 99 c4 -4 21 -9 37 -11 l30 -4 -38 -17 c-39 -18 -42 -37 -6 -37
11 0 36 -7 57 -15 33 -13 35 -13 18 0 -11 8 -26 15 -33 15 -10 0 -11 4 -2 19
18 28 5 48 -35 53 -20 2 -33 1 -28 -3z"/>
<path d="M763 55 c0 -33 2 -45 4 -27 2 18 2 45 0 60 -2 15 -4 0 -4 -33z"/>
<path d="M1960 95 c-14 -8 -20 -14 -14 -15 5 0 19 7 30 15 24 18 16 19 -16 0z"/>
<path d="M963 89 c-18 -5 -33 -12 -33 -15 0 -3 10 -2 22 2 13 4 36 7 53 6 21
-1 25 2 15 8 -17 11 -15 11 -57 -1z"/>
<path d="M1364 81 c-17 -10 -41 -32 -53 -47 l-23 -29 37 -3 c20 -2 39 -2 41 1
4 4 33 97 31 97 -1 0 -16 -9 -33 -19z"/>
<path d="M1194 68 c3 -13 6 -33 6 -45 0 -20 5 -23 40 -23 50 0 51 13 4 56 -41
40 -59 43 -50 12z"/>
<path d="M1569 79 c-10 -6 -7 -9 14 -9 29 0 35 5 14 13 -8 3 -20 1 -28 -4z"/>
<path d="M1813 40 c0 -25 2 -35 4 -22 2 12 2 32 0 45 -2 12 -4 2 -4 -23z"/>
<path d="M71 55 c8 -9 33 -18 55 -20 l39 -5 -35 11 c-19 6 -39 15 -44 20 -6 5
-15 9 -20 9 -6 0 -3 -7 5 -15z"/>
<path d="M1628 63 c27 -11 9 -21 -44 -25 -30 -3 -61 -11 -69 -19 -12 -12 -6
-14 45 -16 46 -1 62 3 75 17 19 21 14 51 -7 49 -10 0 -10 -2 0 -6z"/>
<path d="M949 29 c24 -23 36 -28 41 -19 5 9 22 11 50 7 38 -5 41 -4 28 10 -17
16 -78 33 -123 32 l-30 0 34 -30z"/>
<path d="M375 39 c-4 -6 -5 -12 -2 -15 2 -3 7 2 10 11 7 17 1 20 -8 4z"/>
<path d="M780 27 c0 -18 5 -27 15 -27 13 0 14 4 4 23 -17 33 -19 33 -19 4z"/>
<path d="M2154 35 c-3 -8 -4 -20 -1 -27 3 -7 6 -3 6 9 1 12 9 24 19 26 16 4
16 5 -1 6 -10 0 -20 -6 -23 -14z"/>
<path d="M1783 19 c-1 -10 2 -19 8 -19 11 0 12 27 1 34 -4 2 -9 -4 -9 -15z"/>
<path d="M155 21 c-29 -7 -29 -7 -7 -15 13 -4 45 -5 70 -1 38 6 43 9 27 16
-24 9 -49 9 -90 0z"/>
<path d="M520 17 c0 -8 6 -14 14 -14 8 0 12 6 9 14 -3 7 -9 13 -14 13 -5 0 -9
-6 -9 -13z"/>
</g>
</svg>
